<svg width="16" height="16" viewBox="0 0 16 16" fill="none" xmlns="http://www.w3.org/2000/svg">
<g id="arrow-circle-right 1" clip-path="url(#clip0_25_1663)">
<circle id="Ellipse 8" cx="8" cy="8" r="7" fill="#0269E9"/>
<path id="Vector" d="M0 8C0 9.58225 0.469192 11.129 1.34824 12.4446C2.22729 13.7602 3.47672 14.7855 4.93853 15.391C6.40034 15.9965 8.00887 16.155 9.56072 15.8463C11.1126 15.5376 12.538 14.7757 13.6569 13.6569C14.7757 12.538 15.5376 11.1126 15.8463 9.56072C16.155 8.00887 15.9965 6.40034 15.391 4.93853C14.7855 3.47672 13.7602 2.22729 12.4446 1.34824C11.129 0.469192 9.58225 0 8 0C5.87897 0.00229405 3.84547 0.845886 2.34568 2.34568C0.845886 3.84547 0.00229405 5.87897 0 8ZM11.6093 7.05733C11.8593 7.30737 11.9997 7.64645 11.9997 8C11.9997 8.35355 11.8593 8.69263 11.6093 8.94267L8.78067 11.7713L7.838 10.8287L10 8.66667H4V7.33333H10L7.838 5.17133L8.78067 4.22867L11.6093 7.05733Z" fill="white"/>
</g>
<defs>
<clipPath id="clip0_25_1663">
<rect width="16" height="16" fill="white"/>
</clipPath>
</defs>
</svg>
