<svg width="32" height="32" viewBox="0 0 32 32" fill="none" xmlns="http://www.w3.org/2000/svg">
<g id="blood 1">
<g id="Group">
<path id="Vector 2" d="M7 18L15.9187 3.13557L18.5 6.5L20.5 10L22.5 13L24.5 16.5L25 18C25 19.1667 24.9 21.6 24.5 22C24 22.5 24.5 24.5 24 25C23.6 25.4 22.8333 26.8333 22.5 27.5L18 29.5L14.5 29L9 27L7 22.5V18Z" fill="white"/>
<path id="Vector" d="M26.5932 20.0236C26.4273 17.557 25.4713 14.8591 23.9016 12.4272L16.8023 1.42907C16.6297 1.16163 16.3332 1 16.0148 1C15.6964 1 15.3997 1.16163 15.2271 1.42907L8.12794 12.4271C6.45421 15.0201 5.50804 17.7312 5.39187 20.2675C5.25802 23.1879 6.24731 25.7915 8.25274 27.797C10.3182 29.8625 13.0748 31 16.0149 31C18.9549 31 21.7115 29.8625 23.777 27.797C25.8237 25.7501 26.7975 23.0622 26.5932 20.0236ZM22.4511 26.4712C20.7397 28.1826 18.4539 29.1251 16.0148 29.1251C13.5756 29.1251 11.2898 28.1826 9.5784 26.4712C4.90686 21.7997 8.49284 15.3191 9.70313 13.4441L16.0148 3.66616L22.3264 13.4441C24.8204 17.308 26.1629 22.7593 22.4511 26.4712ZM15.0624 21.1969H13.0996V19.3219H15.0624V17.359H16.9375V19.3219H18.9003V21.1969H16.9375V23.1598H15.0624V21.1969ZM22.0898 19.322C22.6075 19.322 23.0273 19.7417 23.0273 20.2595C23.0273 24.1344 19.8748 27.2869 15.9999 27.2869C15.4822 27.2869 15.0624 26.8671 15.0624 26.3494C15.0624 25.8316 15.4822 25.4119 15.9999 25.4119C18.8409 25.4119 21.1523 23.1006 21.1523 20.2595C21.1523 19.7417 21.572 19.322 22.0898 19.322Z" fill="url(#paint0_linear_25_1824)"/>
</g>
</g>
<defs>
<linearGradient id="paint0_linear_25_1824" x1="15.9999" y1="1" x2="15.9999" y2="31" gradientUnits="userSpaceOnUse">
<stop stop-color="#0058C5"/>
<stop offset="1" stop-color="#3A92FF"/>
<stop offset="1" stop-color="#1A80FF"/>
</linearGradient>
</defs>
</svg>
