<svg width="22" height="22" viewBox="0 0 22 22" fill="none" xmlns="http://www.w3.org/2000/svg">
<g id="crossed-eye 1">
<g id="01 align center">
<path id="Vector" d="M21.8358 10.2492C20.9502 8.32856 19.653 6.62614 18.0362 5.26258L20.8155 2.48324L19.5185 1.18524L16.4999 4.20108C14.8291 3.23465 12.9299 2.73358 10.9999 2.74999C4.12488 2.74999 0.968799 8.48924 0.163965 10.2492C0.0559254 10.4851 0 10.7415 0 11.0009C0 11.2603 0.0559254 11.5167 0.163965 11.7526C1.04959 13.6733 2.34675 15.3757 3.96355 16.7392L1.18513 19.5186L2.4813 20.8147L5.49988 17.7989C7.17063 18.7653 9.06983 19.2664 10.9999 19.25C17.8749 19.25 21.031 13.5107 21.8358 11.7507C21.9436 11.5151 21.9994 11.2591 21.9994 11C21.9994 10.7409 21.9436 10.4848 21.8358 10.2492ZM1.83322 11.0101C2.52072 9.50216 5.21847 4.58333 10.9999 4.58333C12.4387 4.57491 13.8586 4.91058 15.1414 5.56233L13.5235 7.18024C12.6434 6.59596 11.5883 6.33415 10.5372 6.43925C9.48606 6.54435 8.50368 7.00987 7.75672 7.75683C7.00976 8.50379 6.54424 9.48617 6.43914 10.5373C6.33405 11.5884 6.59585 12.6435 7.18013 13.5236L5.27438 15.4293C3.80806 14.2353 2.63152 12.7243 1.83322 11.0101ZM13.7499 11C13.7499 11.7293 13.4602 12.4288 12.9444 12.9445C12.4287 13.4603 11.7292 13.75 10.9999 13.75C10.5915 13.7484 10.1888 13.6544 9.82197 13.475L13.4749 9.82207C13.6543 10.1889 13.7483 10.5916 13.7499 11ZM8.24988 11C8.24988 10.2706 8.53961 9.57117 9.05534 9.05545C9.57106 8.53972 10.2705 8.24999 10.9999 8.24999C11.4082 8.25157 11.811 8.34559 12.1778 8.52499L8.52488 12.1779C8.34548 11.8111 8.25146 11.4084 8.24988 11ZM10.9999 17.4167C9.56109 17.4251 8.14112 17.0894 6.85838 16.4377L8.4763 14.8197C9.35636 15.404 10.4115 15.6658 11.4626 15.5607C12.5137 15.4556 13.4961 14.9901 14.243 14.2432C14.99 13.4962 15.4555 12.5138 15.5606 11.4627C15.6657 10.4116 15.4039 9.35647 14.8196 8.47641L16.7245 6.57158C18.1937 7.76674 19.3709 9.28129 20.1665 11C19.4662 12.5189 16.7675 17.4167 10.9999 17.4167Z" fill="#A3A3A3"/>
</g>
</g>
</svg>
