<svg width="24" height="24" viewBox="0 0 24 24" fill="none" xmlns="http://www.w3.org/2000/svg">
<g id="eye (1) 1">
<g id="01 align center">
<path id="Vector" d="M22.8365 11.2492C22.0316 9.48913 18.8754 3.74957 12 3.74957C5.12462 3.74957 1.96836 9.48913 1.16349 11.2492C1.05544 11.4851 0.999512 11.7415 0.999512 12.0009C0.999512 12.2604 1.05544 12.5168 1.16349 12.7526C1.96836 14.5109 5.12462 20.2505 12 20.2505C18.8754 20.2505 22.0316 14.5109 22.8365 12.7508C22.9443 12.5152 23.0001 12.2591 23.0001 12C23.0001 11.7409 22.9443 11.4848 22.8365 11.2492ZM12 18.417C6.21826 18.417 3.52036 13.4979 2.83283 12.0101C3.52036 10.5021 6.21826 5.583 12 5.583C17.768 5.583 20.4668 10.481 21.1671 12C20.4668 13.519 17.768 18.417 12 18.417Z" fill="#A3A3A3"/>
<path id="Vector_2" d="M12.0001 7.41644C11.0935 7.41644 10.2074 7.68527 9.45358 8.18892C8.69982 8.69257 8.11233 9.40842 7.76541 10.246C7.41849 11.0835 7.32772 12.0051 7.50458 12.8942C7.68144 13.7834 8.11798 14.6001 8.75901 15.2411C9.40003 15.8821 10.2167 16.3187 11.1059 16.4955C11.995 16.6724 12.9166 16.5816 13.7541 16.2347C14.5917 15.8878 15.3075 15.3003 15.8112 14.5465C16.3148 13.7928 16.5837 12.9066 16.5837 12C16.5822 10.7848 16.0988 9.61982 15.2396 8.76055C14.3803 7.90128 13.2153 7.4179 12.0001 7.41644ZM12.0001 14.7502C11.4562 14.7502 10.9244 14.5889 10.4722 14.2867C10.0199 13.9845 9.66743 13.555 9.45928 13.0525C9.25113 12.5499 9.19667 11.997 9.30278 11.4635C9.4089 10.93 9.67082 10.44 10.0554 10.0554C10.4401 9.67076 10.9301 9.40883 11.4636 9.30272C11.997 9.1966 12.55 9.25106 13.0525 9.45922C13.555 9.66737 13.9846 10.0199 14.2867 10.4721C14.5889 10.9244 14.7502 11.4561 14.7502 12C14.7502 12.7294 14.4605 13.4289 13.9447 13.9447C13.429 14.4604 12.7295 14.7502 12.0001 14.7502Z" fill="#A3A3A3"/>
</g>
</g>
</svg>
