<svg width="16" height="16" viewBox="0 0 16 16" fill="none" xmlns="http://www.w3.org/2000/svg">
<g id="left-arrow 1">
<g id="Group">
<g id="Group_2">
<path id="Vector" d="M6.45844 8.00338L12.444 2.01756C12.6088 1.85314 12.6995 1.6333 12.6995 1.39889C12.6995 1.16436 12.6088 0.94465 12.444 0.779967L11.9195 0.25574C11.755 0.0907967 11.535 0 11.3006 0C11.0662 0 10.8465 0.0907967 10.6818 0.25574L3.55503 7.38237C3.38969 7.54758 3.29916 7.76832 3.29981 8.00299C3.29916 8.2387 3.38956 8.45919 3.55503 8.62452L10.6752 15.7443C10.8398 15.9092 11.0595 16 11.2941 16C11.5285 16 11.7482 15.9092 11.913 15.7443L12.4374 15.22C12.7786 14.8788 12.7786 14.3234 12.4374 13.9823L6.45844 8.00338Z" fill="#1F1F1F"/>
</g>
</g>
</g>
</svg>
