<svg width="32" height="32" viewBox="0 0 32 32" fill="none" xmlns="http://www.w3.org/2000/svg">
<g id="lock (3) 1">
<path id="Vector" d="M25.3332 10.6667V9.33333C25.3332 6.85798 24.3498 4.48401 22.5995 2.73367C20.8492 0.983331 18.4752 0 15.9998 0C13.5245 0 11.1505 0.983331 9.40017 2.73367C7.64983 4.48401 6.6665 6.85798 6.6665 9.33333V10.6667H2.6665V28C2.6665 29.0609 3.08793 30.0783 3.83808 30.8284C4.58822 31.5786 5.60564 32 6.6665 32H25.3332C26.394 32 27.4115 31.5786 28.1616 30.8284C28.9117 30.0783 29.3332 29.0609 29.3332 28V10.6667H25.3332ZM17.3332 24H14.6665V18.6667H17.3332V24ZM22.6665 10.6667H9.33317V9.33333C9.33317 7.56522 10.0355 5.86953 11.2858 4.61929C12.536 3.36905 14.2317 2.66667 15.9998 2.66667C17.7679 2.66667 19.4636 3.36905 20.7139 4.61929C21.9641 5.86953 22.6665 7.56522 22.6665 9.33333V10.6667Z" fill="#0269E9"/>
</g>
</svg>
