<svg width="32" height="32" viewBox="0 0 32 32" fill="none" xmlns="http://www.w3.org/2000/svg">
<g id="photo 1">
<rect id="Rectangle 560" x="4" y="4" width="24" height="24" rx="6" fill="white"/>
<g id="Vector">
<path d="M20.8 28H11.2C9.29105 27.998 7.46086 27.2388 6.11102 25.889C4.76119 24.5391 4.00199 22.709 4 20.8V11.2C4.00199 9.29105 4.76119 7.46086 6.11102 6.11102C7.46086 4.76119 9.29105 4.00199 11.2 4H20.8C22.709 4.00199 24.5391 4.76119 25.889 6.11102C27.2388 7.46086 27.998 9.29105 28 11.2V20.8C27.998 22.709 27.2388 24.5391 25.889 25.889C24.5391 27.2388 22.709 27.998 20.8 28ZM11.2 5.5975C9.71473 5.59948 8.29087 6.19038 7.24063 7.24063C6.19038 8.29087 5.59948 9.71473 5.5975 11.2V20.8C5.59948 22.2853 6.19038 23.7091 7.24063 24.7594C8.29087 25.8096 9.71473 26.4005 11.2 26.4025H20.8C22.2853 26.4005 23.7091 25.8096 24.7594 24.7594C25.8096 23.7091 26.4005 22.2853 26.4025 20.8V11.2C26.4005 9.71473 25.8096 8.29087 24.7594 7.24063C23.7091 6.19038 22.2853 5.59948 20.8 5.5975H11.2Z" fill="url(#paint0_linear_25_1853)"/>
<path d="M16 17.5975C15.0506 17.5975 14.1226 17.316 13.3333 16.7886C12.5439 16.2611 11.9287 15.5115 11.5654 14.6344C11.2021 13.7573 11.107 12.7922 11.2922 11.8611C11.4774 10.93 11.9346 10.0747 12.6059 9.40339C13.2772 8.7321 14.1325 8.27494 15.0636 8.08973C15.9947 7.90452 16.9598 7.99958 17.8369 8.36288C18.714 8.72618 19.4636 9.34141 19.9911 10.1308C20.5185 10.9201 20.8 11.8481 20.8 12.7975C20.798 14.0699 20.2917 15.2897 19.3919 16.1894C18.4922 17.0892 17.2724 17.5955 16 17.5975ZM16 9.6025C15.3666 9.6025 14.7474 9.79032 14.2208 10.1422C13.6941 10.4941 13.2837 10.9943 13.0413 11.5795C12.7989 12.1646 12.7355 12.8086 12.859 13.4298C12.9826 14.051 13.2876 14.6216 13.7355 15.0695C14.1834 15.5174 14.754 15.8224 15.3752 15.946C15.9964 16.0695 16.6404 16.0061 17.2255 15.7637C17.8107 15.5213 18.3109 15.1109 18.6628 14.5842C19.0147 14.0576 19.2025 13.4384 19.2025 12.805C19.2025 11.9556 18.8651 11.1411 18.2645 10.5405C17.6639 9.93991 16.8494 9.6025 16 9.6025Z" fill="url(#paint1_linear_25_1853)"/>
<path d="M21.61 22.495C21.41 22.4954 21.2172 22.4204 21.07 22.285C20.0394 21.3244 18.6839 20.7887 17.275 20.785H14.7325C13.3236 20.7887 11.9681 21.3244 10.9375 22.285C10.8608 22.3617 10.7693 22.422 10.6685 22.4623C10.5678 22.5026 10.46 22.5221 10.3515 22.5195C10.2431 22.517 10.1363 22.4925 10.0376 22.4475C9.93886 22.4025 9.85029 22.338 9.77722 22.2578C9.70415 22.1776 9.64809 22.0835 9.61243 21.981C9.57678 21.8786 9.56226 21.77 9.56977 21.6617C9.57727 21.5535 9.60664 21.4479 9.65609 21.3514C9.70555 21.2548 9.77406 21.1693 9.8575 21.1C11.1863 19.8774 12.9268 19.1999 14.7325 19.2025H17.2675C19.0778 19.2021 20.8216 19.8852 22.15 21.115C22.2667 21.2246 22.348 21.3665 22.3834 21.5227C22.4187 21.6788 22.4066 21.8419 22.3486 21.9911C22.2905 22.1403 22.1892 22.2687 22.0575 22.3598C21.9259 22.451 21.7701 22.5006 21.61 22.5025V22.495Z" fill="url(#paint2_linear_25_1853)"/>
</g>
</g>
<defs>
<linearGradient id="paint0_linear_25_1853" x1="16" y1="4" x2="16" y2="28" gradientUnits="userSpaceOnUse">
<stop stop-color="#0058C5"/>
<stop offset="1" stop-color="#3A92FF"/>
<stop offset="1" stop-color="#1A80FF"/>
</linearGradient>
<linearGradient id="paint1_linear_25_1853" x1="16" y1="4" x2="16" y2="28" gradientUnits="userSpaceOnUse">
<stop stop-color="#0058C5"/>
<stop offset="1" stop-color="#3A92FF"/>
<stop offset="1" stop-color="#1A80FF"/>
</linearGradient>
<linearGradient id="paint2_linear_25_1853" x1="16" y1="4" x2="16" y2="28" gradientUnits="userSpaceOnUse">
<stop stop-color="#0058C5"/>
<stop offset="1" stop-color="#3A92FF"/>
<stop offset="1" stop-color="#1A80FF"/>
</linearGradient>
</defs>
</svg>
