<svg width="32" height="32" viewBox="0 0 32 32" fill="none" xmlns="http://www.w3.org/2000/svg">
<g id="stage (1) 1" clip-path="url(#clip0_25_1833)">
<path id="Vector 6" d="M14 5.5L15.5 3.5H16L16.5 4.5L20 6L19.5 6.5H18.5V8V10.5L16 9.5L13.5 10V7.5L12 6L14 5.5Z" fill="white" stroke="white"/>
<path id="Vector 3" d="M10.3591 30.1035V15.5312H21.1708L21.6409 30.1035H10.3591Z" fill="white"/>
<path id="Vector 4" d="M1.89771 30.1035V22.5823H20.8182L21.6408 30.1035H1.89771Z" fill="white"/>
<path id="Vector 5" d="M11.2993 30.1035V25.4028H30.2198L31.0424 30.1035H11.2993Z" fill="white"/>
<path id="Vector" d="M13.3099 12.2143L13.3099 12.2143C13.0601 12.3842 12.7314 12.383 12.484 12.2083C12.2368 12.0364 12.1225 11.727 12.1965 11.4352C12.1965 11.4352 12.1965 11.4352 12.1965 11.4352L13.0361 8.12344L10.5138 5.96897L13.3099 12.2143ZM13.3099 12.2143L16.0001 10.3836L18.6902 12.2143M13.3099 12.2143L18.6902 12.2143M10.297 5.18416L10.2971 5.18402C10.3916 4.90323 10.6476 4.70858 10.9438 4.69116L10.944 4.69115L14.1526 4.50934L15.3171 1.3369C15.4264 1.03908 15.7216 0.9 15.9993 0.9C16.277 0.9 16.5719 1.03903 16.6806 1.3369L10.297 5.18416ZM10.297 5.18416C10.2027 5.46573 10.2881 5.77674 10.5137 5.96888L10.297 5.18416ZM19.515 12.2083C19.7622 12.0364 19.8765 11.727 19.8025 11.4352C19.8025 11.4352 19.8025 11.4352 19.8025 11.4352L18.9629 8.12343L21.484 5.96897C21.484 5.96895 21.484 5.96893 21.484 5.96891C21.7096 5.77677 21.7951 5.46575 21.7007 5.18416L21.7007 5.18402C21.6061 4.90323 21.3502 4.70858 21.054 4.69116L21.0537 4.69115L17.8451 4.50934L16.6807 1.33711L19.5144 12.2088C19.5146 12.2086 19.5148 12.2085 19.515 12.2083ZM19.515 12.2083C19.3908 12.2973 19.2451 12.3407 19.0988 12.3407C18.9562 12.3407 18.8137 12.2985 18.6902 12.2143M19.515 12.2083L18.6902 12.2143M17.9242 9.93401L17.4438 8.04092L17.4437 8.04045C17.3769 7.7721 17.4667 7.48877 17.6763 7.30976L19.1656 6.03739L17.287 5.93001L17.2868 5.93L17.2925 5.83016L17.9242 9.93401ZM17.9242 9.93401L16.4087 8.90395L17.9242 9.93401ZM14.7132 5.93126C15.0023 5.91529 15.2555 5.72931 15.3545 5.4556C15.3546 5.45558 15.3546 5.45555 15.3546 5.45553L16.0001 3.69607L16.6457 5.45443C16.6458 5.45451 16.6458 5.45459 16.6458 5.45466L16.4086 8.90385C16.2852 8.81969 16.1427 8.77749 16.0001 8.77749C15.8567 8.77749 15.7145 8.8214 15.5907 8.9049L15.5904 8.9051L14.0748 9.93527L14.5552 8.0422C14.6235 7.77354 14.5335 7.48995 14.3226 7.31092C14.3225 7.31087 14.3225 7.31083 14.3224 7.31079L12.8334 6.03865L14.7132 5.93126ZM14.7132 5.93126L14.7077 5.83142M14.7132 5.93126L14.7134 5.93125L14.7077 5.83142M14.7077 5.83142C14.9572 5.81763 15.1753 5.65718 15.2605 5.42151M14.7077 5.83142L15.2605 5.42151M15.2605 5.42151L15.9469 3.55096L15.2605 5.42151ZM2.31129 29.6901V23.6225H9.63247V29.6901H2.31129ZM11.086 22.8957C11.086 22.8953 11.086 22.8949 11.086 22.8945V16.1013H20.9142V25.4028V29.6901H11.086L11.086 22.8957ZM9.63247 15.3745V22.169H1.58453C1.18333 22.169 0.857764 22.4945 0.857764 22.8957V30.4169C0.857764 30.8181 1.18333 31.1437 1.58453 31.1437L10.3592 31.1437H21.641H30.4157C30.8169 31.1437 31.1425 30.8181 31.1425 30.4169V25.4028C31.1425 25.0016 30.8169 24.676 30.4157 24.676H22.3678V15.3745C22.3678 14.9733 22.0422 14.6478 21.641 14.6478H10.3592C9.95803 14.6478 9.63247 14.9733 9.63247 15.3745ZM29.6889 26.1295V29.6901H22.3678V26.1295H29.6889ZM15.2734 25.4028C15.2734 25.804 15.5989 26.1295 16.0001 26.1295C16.4013 26.1295 16.7269 25.804 16.7269 25.4028V20.3887C16.7269 19.9875 16.4013 19.6619 16.0001 19.6619H15.3734C14.9722 19.6619 14.6466 19.9875 14.6466 20.3887C14.6466 20.7559 14.9194 21.0598 15.2734 21.1086V25.4028Z" fill="url(#paint0_linear_25_1833)" stroke="url(#paint1_linear_25_1833)" stroke-width="0.2"/>
</g>
<defs>
<linearGradient id="paint0_linear_25_1833" x1="16.0001" y1="1" x2="16.0001" y2="31.0437" gradientUnits="userSpaceOnUse">
<stop stop-color="#0058C5"/>
<stop offset="1" stop-color="#3A92FF"/>
<stop offset="1" stop-color="#1A80FF"/>
</linearGradient>
<linearGradient id="paint1_linear_25_1833" x1="16.0001" y1="1" x2="16.0001" y2="31.0437" gradientUnits="userSpaceOnUse">
<stop stop-color="#065DC9"/>
<stop offset="1" stop-color="#3A91FE"/>
</linearGradient>
<clipPath id="clip0_25_1833">
<rect width="32" height="32" fill="white"/>
</clipPath>
</defs>
</svg>
